<?xml version="1.0" encoding="UTF-8"?>
<svg width="1024px" height="1024px" viewBox="0 0 1024 1024" version="1.1" xmlns="http://www.w3.org/2000/svg" xmlns:xlink="http://www.w3.org/1999/xlink">
    <title>Music-2</title>
    <defs>
        <path d="M0,0 L1024,0 L1024,1024 L0,1024 L0,0 Z" id="path-1"></path>
    </defs>
    <g id="Music-2" stroke="none" fill="none" xlink:href="#path-1" fill-rule="nonzero">
        <path d="M511.700011,189.841191 L511.700011,189.872559 L511.637286,189.872559 L511.605923,189.872559 C421.556103,189.872559 339.913074,226.095697 280.575742,284.739813 L280.481654,284.771173 C273.675445,291.514006 271.198051,301.424326 273.989154,310.581874 C275.18104,314.470822 277.219707,317.920598 279.917106,320.774324 L279.885743,320.774324 C232.242443,375.062061 203.387157,446.222939 203.387157,524.09341 C203.387157,553.072241 207.370466,581.141419 214.835488,607.736525 L214.804125,607.736525 C193.539038,631.634788 184.379892,665.4742 193.287718,698.749997 L210.193638,761.788228 C221.987234,805.820892 261.789013,834.831035 305.293956,834.831035 C313.731259,834.831035 322.293821,833.73335 330.825068,831.443882 L367.741881,821.533241 C392.583266,814.884504 407.324457,789.355772 400.675304,764.516544 L356.85882,601.11621 C351.307206,580.323454 332.582705,566.586329 312.069975,566.586329 C308.086665,566.586329 304.071961,567.088123 300.025861,568.154416 L262.827216,578.127682 C255.707379,580.040763 248.963639,582.675224 242.691065,585.9682 C238.143127,566.052981 235.759437,545.354161 235.759437,524.090921 C235.759437,455.157208 261.039227,392.090878 302.849162,343.693806 L303.790128,344.603298 C306.017005,346.735884 308.651695,348.492245 311.631328,349.715339 L311.725417,349.778059 C314.924654,351.126642 318.217916,351.722533 321.574289,351.722533 C328.223603,351.722533 334.716023,349.182168 339.640459,344.352417 L339.671822,344.321057 C383.958829,300.664939 444.648313,273.75591 511.709936,273.75591 C578.768347,273.75591 639.489948,300.633627 683.780167,344.289745 C683.905626,344.446562 684.187908,344.697459 684.187908,344.697459 C686.822518,347.175039 689.990441,349.119512 693.503629,350.342606 L693.597717,350.373966 C696.295117,351.283459 699.086541,351.722549 701.877644,351.722549 C708.589748,351.722549 715.17595,349.088168 720.100387,344.16424 L720.100387,344.1956 L720.759047,343.505629 L720.79041,343.536989 C762.694289,391.928441 788.036709,455.063818 788.036709,524.08665 C788.036709,545.349889 785.652938,566.080825 781.105081,585.963929 C774.832105,582.670872 768.088606,580.036492 760.96893,578.12341 L723.770284,568.150145 C719.724185,567.083852 715.709561,566.582057 711.726171,566.582057 C691.21344,566.582057 672.488859,580.31838 666.937326,601.111939 L623.152156,764.512273 C616.471447,789.3515 631.21288,814.879591 656.054265,821.52897 L692.971078,831.439611 C701.502325,833.729078 710.096201,834.831035 718.502189,834.831035 C762.005526,834.831035 801.807306,805.816621 813.634625,761.783956 L830.509231,698.745726 C839.417057,665.470732 830.258312,631.661828 808.992824,607.732254 L808.961461,607.732254 C816.426322,581.137148 820.409792,553.06797 820.409792,524.089139 C820.409792,446.123126 791.491073,374.899624 743.753829,320.577363 L743.722466,320.577363 C745.761213,318.319288 747.423542,315.747612 748.615427,312.862253 C752.598737,303.171599 750.37186,292.132121 742.938394,284.761764 L742.87566,284.730403 C683.502197,226.083075 601.831065,189.831035 511.71701,189.831035 L511.700011,189.841191 Z" id="Shape" fill="#000000"></path>
    </g>
</svg>