<?xml version="1.0" encoding="UTF-8"?>
<svg width="1024px" height="1024px" viewBox="0 0 1024 1024" version="1.1" xmlns="http://www.w3.org/2000/svg" xmlns:xlink="http://www.w3.org/1999/xlink">
    <title>Music-1</title>
    <defs>
        <path d="M0,0 L1024,0 L1024,1024 L0,1024 L0,0 Z" id="path-1"></path>
    </defs>
    <g id="Music-1" stroke="none" fill="none" xlink:href="#path-1" fill-rule="evenodd" stroke-width="1">
        <g id="Group" transform="translate(362.8142, 408.9367)" fill="#000000">
            <path d="M82.5519581,78.7512212 C73.7067613,78.7512212 66.5557698,85.9017521 66.5557698,94.74602 L66.5557698,127.111361 C66.5557698,135.924478 73.7069219,143.074848 82.5519581,143.074848 C91.3658401,143.074848 98.5168316,135.924317 98.5168316,127.111361 L98.5168316,94.74602 C98.5168316,85.9015915 91.3656796,78.7512212 82.5519581,78.7512212 Z" id="-path"></path>
            <path d="M282.155032,78.7512212 C273.309835,78.7512212 266.158844,85.9017521 266.158844,94.74602 L266.158844,127.111361 C266.158844,135.924478 273.309996,143.074848 282.155032,143.074848 C290.968914,143.074848 298.15122,135.924317 298.15122,127.111361 L298.15122,94.74602 C298.15122,85.9015915 290.968673,78.7512212 282.155032,78.7512212 Z" id="-path"></path>
            <path d="M15.9961883,56.8288248 C7.1823062,56.8288248 0,64.010748 0,72.8236236 L0,149.002446 C0,157.846874 7.18254708,164.997244 15.9961883,164.997244 C24.8100703,164.997244 31.9923765,157.846714 31.9923765,149.002446 L31.9923765,72.8236236 C31.9923765,64.0105071 24.8098295,56.8288248 15.9961883,56.8288248 Z" id="-path"></path>
            <path d="M215.599262,38.4189896 C206.78538,38.4189896 199.634389,45.5695206 199.634389,54.3824765 L199.634389,167.44279 C199.634389,176.287218 206.785541,183.437589 215.599262,183.437589 C224.444459,183.437589 231.595451,176.287058 231.595451,167.44279 L231.595451,54.3824765 C231.595451,45.56936 224.444299,38.4189896 215.599262,38.4189896 Z" id="-path"></path>
            <path d="M149.074004,0 C140.260122,0 133.077816,7.15053092 133.077816,15.9947988 L133.077816,205.833679 C133.077816,214.678108 140.260363,221.828478 149.074004,221.828478 C157.887646,221.828478 165.070193,214.677947 165.070193,205.833679 L165.070193,15.9947988 C165.070193,7.15037035 157.887646,0 149.074004,0 Z" id="-path"></path>
        </g>
    </g>
</svg>